<mxfile host="Electron" modified="2023-05-02T09:30:13.017Z" agent="Mozilla/5.0 (Macintosh; Intel Mac OS X 10_15_7) AppleWebKit/537.36 (KHTML, like Gecko) draw.io/21.2.1 Chrome/112.0.5615.87 Electron/24.1.2 Safari/537.36" etag="0uQuFXs-DepNNYt8APhq" version="21.2.1" type="device">
  <diagram name="Page-1" id="gjwsxaL6q4B8kXtzPKd9">
    <mxGraphModel dx="928" dy="745" grid="1" gridSize="10" guides="1" tooltips="1" connect="1" arrows="1" fold="1" page="1" pageScale="1" pageWidth="1169" pageHeight="1654" math="0" shadow="0">
      <root>
        <mxCell id="0" />
        <mxCell id="1" parent="0" />
        <mxCell id="TZ5CDv7rkqlzj_aZVNXE-59" value="Casa" style="rounded=1;whiteSpace=wrap;html=1;align=left;spacingLeft=12;spacingTop=2;spacing=0;fontSize=14;fillColor=none;strokeColor=#82b366;gradientColor=none;verticalAlign=top;arcSize=10;strokeWidth=1;sketch=1;curveFitting=1;jiggle=2;fontFamily=Verdana;shadow=0;glass=0;fillStyle=auto;" parent="1" vertex="1">
          <mxGeometry x="130" y="260" width="450" height="250" as="geometry" />
        </mxCell>
        <mxCell id="TZ5CDv7rkqlzj_aZVNXE-66" value="&lt;div style=&quot;font-size: 8px;&quot;&gt;&lt;/div&gt;&lt;font face=&quot;Courier New&quot;&gt;&lt;div style=&quot;font-weight: bold;&quot;&gt;/etc/dnsmasq.d/&lt;span style=&quot;background-color: initial;&quot;&gt;02-pihole-dhcp.conf&lt;/span&gt;&lt;/div&gt;&lt;div style=&quot;&quot;&gt;&lt;div style=&quot;&quot;&gt;&lt;b&gt;/etc/dnsmasq.d/&lt;/b&gt;&lt;b style=&quot;background-color: initial;&quot;&gt;03-pihole-custom.conf&lt;/b&gt;&lt;/div&gt;&lt;/div&gt;&lt;/font&gt;" style="shape=parallelogram;perimeter=parallelogramPerimeter;whiteSpace=wrap;html=1;fixedSize=1;size=0;rounded=1;fontSize=8;strokeWidth=0.2;labelPosition=center;verticalLabelPosition=middle;align=left;verticalAlign=middle;fillColor=#D6D6D6;fontColor=#333333;strokeColor=#666666;sketch=1;curveFitting=1;jiggle=1;" parent="1" vertex="1">
          <mxGeometry x="380" y="348.78" width="190" height="31.22" as="geometry" />
        </mxCell>
        <mxCell id="TZ5CDv7rkqlzj_aZVNXE-23" value="Internet&amp;nbsp; &amp;nbsp; &amp;nbsp; &amp;nbsp; &amp;nbsp; &amp;nbsp; &amp;nbsp; &amp;nbsp; &amp;nbsp;" style="ellipse;shape=cloud;whiteSpace=wrap;html=1;fillColor=none;strokeColor=#EA6B66;fontSize=16;sketch=1;curveFitting=1;jiggle=2;fontFamily=Verdana;labelPosition=center;verticalLabelPosition=middle;align=center;verticalAlign=middle;" parent="1" vertex="1">
          <mxGeometry x="160" y="90" width="360" height="130" as="geometry" />
        </mxCell>
        <mxCell id="TZ5CDv7rkqlzj_aZVNXE-24" value="" style="group" parent="1" vertex="1" connectable="0">
          <mxGeometry x="267.54999999999995" y="300.52000000000004" width="104.27" height="80" as="geometry" />
        </mxCell>
        <mxCell id="TZ5CDv7rkqlzj_aZVNXE-25" value="" style="shape=image;verticalLabelPosition=bottom;labelBackgroundColor=default;verticalAlign=top;aspect=fixed;imageAspect=0;image=data:image/svg+xml,PHN2ZyB4bWxucz0iaHR0cDovL3d3dy53My5vcmcvMjAwMC9zdmciIHZpZXdCb3g9IjAgMCAxNTAgMTUwIiB2ZXJzaW9uPSIxLjEiIHdpZHRoPSIxMDAlIiBzdHlsZT0iZmlsbC1ydWxlOmV2ZW5vZGQ7Y2xpcC1ydWxlOmV2ZW5vZGQ7c3Ryb2tlLWxpbmVjYXA6cm91bmQ7c3Ryb2tlLWxpbmVqb2luOnJvdW5kOyIgaGVpZ2h0PSIxMDAlIj4mI3hhOyAgPGRlZnM+JiN4YTsgICAgJiN4YTsgIDwvZGVmcz4mI3hhOyAgPHJlY3QgeT0iMTUiIHg9IjE1IiBzdHlsZT0iZmlsbDogbm9uZTsgc3Ryb2tlLXdpZHRoOiAwLjJweDsgc3Ryb2tlOiByZ2IoODQsIDg0LCA4NCk7IHBvaW50ZXItZXZlbnRzOiBub25lOyB2aXNpYmlsaXR5OiBoaWRkZW47IiBoZWlnaHQ9IjEyMCIgd2lkdGg9IjEyMCIvPiYjeGE7ICA8ZyB0cmFuc2Zvcm09Im1hdHJpeCgwLjI1OTE3OSwgMCwgMCwgMC4yNTkxNzksIDE2LjM0MzkzOSwgMTUpIiBzdHlsZT0iIj4mI3hhOyAgICA8cGF0aCBkPSJtNDYzLDIzLjVjMC0xMi45NTgtMTAuNTQyLTIzLjUtMjMuNS0yMy41aC0xOTJjLTYuMTc3LDAtMTEuODAxLDIuMzk5LTE2LDYuMzEtNC4xOTktMy45MTEtOS44MjMtNi4zMS0xNi02LjMxaC0xOTJjLTEyLjk1OCwwLTIzLjUsMTAuNTQyLTIzLjUsMjMuNXYxOTJjMCw2LjE3NyAyLjM5OSwxMS44MDEgNi4zMSwxNi0zLjkxMSw0LjE5OS02LjMxLDkuODIzLTYuMzEsMTZ2MTkyYzAsMTIuOTU4IDEwLjU0MiwyMy41IDIzLjUsMjMuNWgxOTJjNi4xNzcsMCAxMS44MDEtMi4zOTkgMTYtNi4zMSA0LjE5OSwzLjkxMSA5LjgyMyw2LjMxIDE2LDYuMzFoMTkyYzEyLjk1OCwwIDIzLjUtMTAuNTQyIDIzLjUtMjMuNXYtMTkyYzAtNi4xNzctMi4zOTktMTEuODAxLTYuMzEtMTYgMy45MTEtNC4xOTkgNi4zMS05LjgyMyA2LjMxLTE2di0xOTJ6bS0yMTUuNS04LjVoMTkyYzQuNjg3LDAgOC41LDMuODEzIDguNSw4LjV2MTkyYzAsNC42ODctMy44MTMsOC41LTguNSw4LjVoLTY1LjA2MmMtNC4xMDIsMC03LjQzOC0zLjMzNy03LjQzOC03LjQzOHYtMy43MjVjMC0yLjQ0MiAxLjM3OC00LjgxMSAzLjc4MS02LjQ5OCAxNS4xOTYtMTAuNjc0IDIyLjY2OC0yOC43NTggMTkuNS00Ny4xOTUtMy4yNDQtMTguODgxLTE3Ljk2MS0zNC4xODYtMzYuNjI0LTM4LjA4NC0xNC4zMjMtMi45OTItMjguOTQsMC40OTUtNDAuMDk4LDkuNTYzLTExLjE1OSw5LjA2OS0xNy41NTksMjIuNTExLTE3LjU1OSwzNi44NzcgMCwxNS41NjUgNy42NjUsMzAuMTU4IDIwLjUwNCwzOS4wMzcgMi4yMjIsMS41MzYgMy40OTYsMy44MTIgMy40OTYsNi4yNDR2My43OGMwLDQuMTAyLTMuMzM3LDcuNDM4LTcuNDM4LDcuNDM4aC03My41NjJ2LTczLjU2MmMwLTEyLjM3Mi0xMC4wNjUtMjIuNDM3LTIyLjQzOC0yMi40MzdoLTMuNzhjLTcuMzIsMC0xNC4yNjcsMy43MjUtMTguNTgyLDkuOTY0LTYuMDc4LDguNzg5LTE2LjA1OSwxNC4wMzYtMjYuNywxNC4wMzYtOS44MywwLTE5LjAyOC00LjM4MS0yNS4yMzctMTIuMDIxLTYuMjk5LTcuNzUtOC42MTQtMTcuNTQyLTYuNTItMjcuNTcxIDIuNjA4LTEyLjQ4OSAxMy4yNzUtMjIuNzMxIDI1Ljk0LTI0LjkwNiAxMi42NjgtMi4xNzkgMjUuMDczLDIuOTM3IDMyLjM3OSwxMy4zMzkgNC41MzYsNi40NTYgMTEuMzc4LDEwLjE1OSAxOC43NzQsMTAuMTU5aDMuNzI2YzEyLjM3MywwIDIyLjQzOC0xMC4wNjUgMjIuNDM4LTIyLjQzOHYtNjUuMDYyYzAtNC42ODcgMy44MTMtOC41IDguNS04LjV6bS0yMzIuNSw4LjVjMC00LjY4NyAzLjgxMy04LjUgOC41LTguNWgxOTJjNC42ODcsMCA4LjUsMy44MTMgOC41LDguNXY2NS4wNjJjMCw0LjEwMi0zLjMzNiw3LjQzOC03LjQzOCw3LjQzOGgtMy43MjZjLTIuNDQyLDAtNC44MTEtMS4zNzgtNi40OTgtMy43OC0xMC42NzMtMTUuMTk2LTI4Ljc1My0yMi42NzMtNDcuMTk0LTE5LjUwMS0xOC44ODIsMy4yNDItMzQuMTg3LDE3Ljk2LTM4LjA4NSwzNi42MjMtMi45OTIsMTQuMzI1IDAuNDk0LDI4Ljk0IDkuNTYzLDQwLjA5OSA5LjA3LDExLjE1OSAyMi41MTEsMTcuNTU5IDM2Ljg3OCwxNy41NTkgMTUuNTY1LDAgMzAuMTU5LTcuNjY1IDM5LjAzNy0yMC41MDQgMS41MzctMi4yMjIgMy44MTMtMy40OTYgNi4yNDUtMy40OTZoMy43OGM0LjEwMiwwIDcuNDM4LDMuMzM3IDcuNDM4LDcuNDM4djczLjU2MmgtNzMuNTYyYy0xMi4zNzMsMC0yMi40MzgsMTAuMDY1LTIyLjQzOCwyMi40Mzh2My43OGMwLDcuMzIxIDMuNzI1LDE0LjI2OCA5Ljk2NCwxOC41ODIgOC43ODksNi4wNzggMTQuMDM2LDE2LjA1OSAxNC4wMzYsMjYuNyAwLDkuODMtNC4zODEsMTkuMDI5LTEyLjAyMSwyNS4yMzctNy43NSw2LjI5OC0xNy41NDEsOC42MTUtMjcuNTcyLDYuNTE5LTEyLjQ4OC0yLjYwNy0yMi43My0xMy4yNzQtMjQuOTA2LTI1Ljk0LTIuMTc1LTEyLjY2NSAyLjkzNi0yNS4wNzIgMTMuMzM5LTMyLjM3OSA2LjQ1Ni00LjUzNSAxMC4xNTktMTEuMzc4IDEwLjE1OS0xOC43NzN2LTMuNzI1YzAuMDAxLTEyLjM3NC0xMC4wNjQtMjIuNDM5LTIyLjQzNy0yMi40MzloLTY1LjA2MmMtNC42ODcsMC04LjUtMy44MTMtOC41LTguNXYtMTkyem0yMDAuNSw0MjQuNWgtMTkyYy00LjY4NywwLTguNS0zLjgxMy04LjUtOC41di0xOTJjMC00LjY4NyAzLjgxMy04LjUgOC41LTguNWg2NS4wNjJjNC4xMDIsMCA3LjQzOCwzLjMzNyA3LjQzOCw3LjQzOHYzLjcyNWMwLDIuNDQyLTEuMzc4LDQuODExLTMuNzgxLDYuNDk4LTE1LjE5NiwxMC42NzQtMjIuNjY4LDI4Ljc1Ny0xOS41MDEsNDcuMTkzIDMuMjQ0LDE4Ljg4MyAxNy45NjIsMzQuMTg4IDM2LjYyMywzOC4wODUgMy4zNjQsMC43MDIgNi43NDIsMS4wNDggMTAuMDg5LDEuMDQ4IDEwLjkwOCwwIDIxLjQ3MS0zLjY3IDMwLjAwOS0xMC42MDkgMTEuMTYxLTkuMDY5IDE3LjU2MS0yMi41MTEgMTcuNTYxLTM2Ljg3OCAwLTE1LjU2NS03LjY2Ni0zMC4xNTktMjAuNTA1LTM5LjAzNy0yLjIyMS0xLjUzNi0zLjQ5NS0zLjgxMi0zLjQ5NS02LjI0NHYtMy43OGMwLTQuMTAyIDMuMzM2LTcuNDM4IDcuNDM4LTcuNDM4aDczLjU2MnY3My41NjJjMCwxMi4zNzIgMTAuMDY2LDIyLjQzNyAyMi40MzgsMjIuNDM3aDMuNzI1YzcuMzk2LDAgMTQuMjM5LTMuNzAzIDE4Ljc3My0xMC4xNiA3LjMwOC0xMC40MDMgMTkuNzE0LTE1LjUxMyAzMi4zOC0xMy4zMzggMTIuNjY2LDIuMTc2IDIzLjMzMywxMi40MTggMjUuOTQsMjQuOTA3IDIuMDk1LDEwLjAyOS0wLjIyMSwxOS44MjEtNi41MiwyNy41NzEtNi4yMDgsNy42MzktMTUuNDA2LDEyLjAyLTI1LjIzNiwxMi4wMi0xMC42NDEsMC0yMC42MjItNS4yNDctMjYuNy0xNC4wMzctNC4zMTUtNi4yMzgtMTEuMjYxLTkuOTYzLTE4LjU4Mi05Ljk2M2gtMy43OGMtMTIuMzcyLDAtMjIuNDM4LDEwLjA2NS0yMi40MzgsMjIuNDM4djY1LjA2MmMwLDQuNjg3LTMuODEzLDguNS04LjUsOC41em0yMzIuNS04LjVjMCw0LjY4Ny0zLjgxMyw4LjUtOC41LDguNWgtMTkyYy00LjY4NywwLTguNS0zLjgxMy04LjUtOC41di02NS4wNjJjMC00LjEwMiAzLjMzNy03LjQzOCA3LjQzOC03LjQzOGgzLjc4YzIuNDMyLDAgNC43MDgsMS4yNzQgNi4yNDQsMy40OTUgOC44NzksMTIuODQgMjMuNDczLDIwLjUwNSAzOS4wMzgsMjAuNTA1IDE0LjM2NiwwIDI3LjgwOC02LjQgMzYuODc3LTE3LjU2IDkuMDY5LTExLjE1NyAxMi41NTQtMjUuNzcyIDkuNTYzLTQwLjA5OC0zLjg5Ny0xOC42NjItMTkuMjAxLTMzLjM4LTM4LjA4My0zNi42MjQtMTguNDM5LTMuMTc2LTM2LjUyMSw0LjMwNC00Ny4xOTUsMTkuNS0xLjY4OCwyLjQwMy00LjA1NiwzLjc4MS02LjQ5OSwzLjc4MWgtMy43MjVjLTQuMTAyLDAtNy40MzgtMy4zMzctNy40MzgtNy40Mzh2LTczLjU2MWg3My41NjJjMTIuMzcyLDAgMjIuNDM4LTEwLjA2NSAyMi40MzgtMjIuNDM4di0zLjc4YzAtNy4zMjEtMy43MjUtMTQuMjY4LTkuOTY0LTE4LjU4Mi04Ljc4OS02LjA3OC0xNC4wMzYtMTYuMDU5LTE0LjAzNi0yNi43IDAtOS44MyA0LjM4MS0xOS4wMjggMTIuMDItMjUuMjM2IDcuNzUtNi4zIDE3LjU0My04LjYxNCAyNy41NzEtNi41MjEgMTIuNDg5LDIuNjA4IDIyLjczMSwxMy4yNzUgMjQuOTA3LDI1Ljk0IDIuMTc2LDEyLjY2NS0yLjkzNSwyNS4wNzMtMTMuMzM5LDMyLjM4LTYuNDU2LDQuNTM2LTEwLjE1OSwxMS4zNzgtMTAuMTU5LDE4Ljc3NHYzLjcyNWMwLDEyLjM3MyAxMC4wNjYsMjIuNDM4IDIyLjQzOCwyMi40MzhoNjUuMDYyYzQuNjg3LDAgOC41LDMuODEzIDguNSw4LjV2MTkyeiIvPiYjeGE7ICA8L2c+JiN4YTs8L3N2Zz4=;" parent="TZ5CDv7rkqlzj_aZVNXE-24" vertex="1">
          <mxGeometry x="29.79142857142857" y="-1" width="44.680851063829785" height="44.680851063829785" as="geometry" />
        </mxCell>
        <mxCell id="TZ5CDv7rkqlzj_aZVNXE-26" value="&lt;div style=&quot;font-size: 7px;&quot;&gt;&lt;font style=&quot;font-size: 7px;&quot; face=&quot;Courier New&quot;&gt;Servidor DNS/DHCP&amp;nbsp;&lt;/font&gt;&lt;/div&gt;&lt;div style=&quot;font-size: 7px;&quot;&gt;&lt;font style=&quot;font-size: 7px;&quot; face=&quot;Courier New&quot;&gt;&lt;b&gt;Pihole&lt;/b&gt;&lt;/font&gt;&lt;/div&gt;&lt;div style=&quot;font-size: 7px;&quot;&gt;&lt;span style=&quot;font-family: &amp;quot;Courier New&amp;quot;; background-color: initial;&quot;&gt;192.168.100.224&lt;/span&gt;&lt;br&gt;&lt;/div&gt;" style="rounded=1;whiteSpace=wrap;html=1;fontSize=7;sketch=1;curveFitting=1;jiggle=1;strokeWidth=0.5;" parent="TZ5CDv7rkqlzj_aZVNXE-24" vertex="1">
          <mxGeometry x="13" y="38" width="84.27" height="44" as="geometry" />
        </mxCell>
        <mxCell id="TZ5CDv7rkqlzj_aZVNXE-27" value="" style="group" parent="1" vertex="1" connectable="0">
          <mxGeometry x="380" y="129" width="85.27" height="81" as="geometry" />
        </mxCell>
        <mxCell id="TZ5CDv7rkqlzj_aZVNXE-28" value="&lt;div style=&quot;font-size: 7px;&quot;&gt;&lt;font style=&quot;font-size: 7px;&quot; face=&quot;Courier New&quot;&gt;&lt;b&gt;DNS Movistar&lt;/b&gt;&lt;/font&gt;&lt;/div&gt;&lt;div style=&quot;font-size: 7px;&quot;&gt;&lt;font style=&quot;font-size: 7px;&quot; face=&quot;Courier New&quot;&gt;80.58.61.250&lt;/font&gt;&lt;/div&gt;&lt;div style=&quot;font-size: 7px;&quot;&gt;&lt;font style=&quot;font-size: 7px;&quot; face=&quot;Courier New&quot;&gt;80.58.61.254&lt;/font&gt;&lt;/div&gt;" style="rounded=1;whiteSpace=wrap;html=1;fontSize=7;sketch=1;curveFitting=1;jiggle=1;strokeWidth=0.5;" parent="TZ5CDv7rkqlzj_aZVNXE-27" vertex="1">
          <mxGeometry y="38.368421052631575" width="85.27" height="42.63157894736842" as="geometry" />
        </mxCell>
        <mxCell id="TZ5CDv7rkqlzj_aZVNXE-29" value="" style="shape=image;verticalLabelPosition=bottom;labelBackgroundColor=default;verticalAlign=top;aspect=fixed;imageAspect=0;image=data:image/svg+xml,PHN2ZyB4bWxucz0iaHR0cDovL3d3dy53My5vcmcvMjAwMC9zdmciIHZpZXdCb3g9IjAgMCAxNTAgMTUwIiB2ZXJzaW9uPSIxLjEiIHdpZHRoPSIxMDAlIiBzdHlsZT0iZmlsbC1ydWxlOmV2ZW5vZGQ7Y2xpcC1ydWxlOmV2ZW5vZGQ7c3Ryb2tlLWxpbmVjYXA6cm91bmQ7c3Ryb2tlLWxpbmVqb2luOnJvdW5kOyIgaGVpZ2h0PSIxMDAlIj4mI3hhOyAgPGRlZnM+JiN4YTsgICAgJiN4YTsgIDwvZGVmcz4mI3hhOyAgPHJlY3QgeT0iMTUiIHg9IjE1IiBzdHlsZT0iZmlsbDogbm9uZTsgc3Ryb2tlLXdpZHRoOiAwLjJweDsgc3Ryb2tlOiByZ2IoODQsIDg0LCA4NCk7IHBvaW50ZXItZXZlbnRzOiBub25lOyB2aXNpYmlsaXR5OiBoaWRkZW47IiBoZWlnaHQ9IjEyMCIgd2lkdGg9IjEyMCIvPiYjeGE7ICA8ZyB0cmFuc2Zvcm09Im1hdHJpeCgwLjI1OTE3OSwgMCwgMCwgMC4yNTkxNzksIDE2LjM0MzkzOSwgMTUpIiBzdHlsZT0iIj4mI3hhOyAgICA8cGF0aCBkPSJtNDYzLDIzLjVjMC0xMi45NTgtMTAuNTQyLTIzLjUtMjMuNS0yMy41aC0xOTJjLTYuMTc3LDAtMTEuODAxLDIuMzk5LTE2LDYuMzEtNC4xOTktMy45MTEtOS44MjMtNi4zMS0xNi02LjMxaC0xOTJjLTEyLjk1OCwwLTIzLjUsMTAuNTQyLTIzLjUsMjMuNXYxOTJjMCw2LjE3NyAyLjM5OSwxMS44MDEgNi4zMSwxNi0zLjkxMSw0LjE5OS02LjMxLDkuODIzLTYuMzEsMTZ2MTkyYzAsMTIuOTU4IDEwLjU0MiwyMy41IDIzLjUsMjMuNWgxOTJjNi4xNzcsMCAxMS44MDEtMi4zOTkgMTYtNi4zMSA0LjE5OSwzLjkxMSA5LjgyMyw2LjMxIDE2LDYuMzFoMTkyYzEyLjk1OCwwIDIzLjUtMTAuNTQyIDIzLjUtMjMuNXYtMTkyYzAtNi4xNzctMi4zOTktMTEuODAxLTYuMzEtMTYgMy45MTEtNC4xOTkgNi4zMS05LjgyMyA2LjMxLTE2di0xOTJ6bS0yMTUuNS04LjVoMTkyYzQuNjg3LDAgOC41LDMuODEzIDguNSw4LjV2MTkyYzAsNC42ODctMy44MTMsOC41LTguNSw4LjVoLTY1LjA2MmMtNC4xMDIsMC03LjQzOC0zLjMzNy03LjQzOC03LjQzOHYtMy43MjVjMC0yLjQ0MiAxLjM3OC00LjgxMSAzLjc4MS02LjQ5OCAxNS4xOTYtMTAuNjc0IDIyLjY2OC0yOC43NTggMTkuNS00Ny4xOTUtMy4yNDQtMTguODgxLTE3Ljk2MS0zNC4xODYtMzYuNjI0LTM4LjA4NC0xNC4zMjMtMi45OTItMjguOTQsMC40OTUtNDAuMDk4LDkuNTYzLTExLjE1OSw5LjA2OS0xNy41NTksMjIuNTExLTE3LjU1OSwzNi44NzcgMCwxNS41NjUgNy42NjUsMzAuMTU4IDIwLjUwNCwzOS4wMzcgMi4yMjIsMS41MzYgMy40OTYsMy44MTIgMy40OTYsNi4yNDR2My43OGMwLDQuMTAyLTMuMzM3LDcuNDM4LTcuNDM4LDcuNDM4aC03My41NjJ2LTczLjU2MmMwLTEyLjM3Mi0xMC4wNjUtMjIuNDM3LTIyLjQzOC0yMi40MzdoLTMuNzhjLTcuMzIsMC0xNC4yNjcsMy43MjUtMTguNTgyLDkuOTY0LTYuMDc4LDguNzg5LTE2LjA1OSwxNC4wMzYtMjYuNywxNC4wMzYtOS44MywwLTE5LjAyOC00LjM4MS0yNS4yMzctMTIuMDIxLTYuMjk5LTcuNzUtOC42MTQtMTcuNTQyLTYuNTItMjcuNTcxIDIuNjA4LTEyLjQ4OSAxMy4yNzUtMjIuNzMxIDI1Ljk0LTI0LjkwNiAxMi42NjgtMi4xNzkgMjUuMDczLDIuOTM3IDMyLjM3OSwxMy4zMzkgNC41MzYsNi40NTYgMTEuMzc4LDEwLjE1OSAxOC43NzQsMTAuMTU5aDMuNzI2YzEyLjM3MywwIDIyLjQzOC0xMC4wNjUgMjIuNDM4LTIyLjQzOHYtNjUuMDYyYzAtNC42ODcgMy44MTMtOC41IDguNS04LjV6bS0yMzIuNSw4LjVjMC00LjY4NyAzLjgxMy04LjUgOC41LTguNWgxOTJjNC42ODcsMCA4LjUsMy44MTMgOC41LDguNXY2NS4wNjJjMCw0LjEwMi0zLjMzNiw3LjQzOC03LjQzOCw3LjQzOGgtMy43MjZjLTIuNDQyLDAtNC44MTEtMS4zNzgtNi40OTgtMy43OC0xMC42NzMtMTUuMTk2LTI4Ljc1My0yMi42NzMtNDcuMTk0LTE5LjUwMS0xOC44ODIsMy4yNDItMzQuMTg3LDE3Ljk2LTM4LjA4NSwzNi42MjMtMi45OTIsMTQuMzI1IDAuNDk0LDI4Ljk0IDkuNTYzLDQwLjA5OSA5LjA3LDExLjE1OSAyMi41MTEsMTcuNTU5IDM2Ljg3OCwxNy41NTkgMTUuNTY1LDAgMzAuMTU5LTcuNjY1IDM5LjAzNy0yMC41MDQgMS41MzctMi4yMjIgMy44MTMtMy40OTYgNi4yNDUtMy40OTZoMy43OGM0LjEwMiwwIDcuNDM4LDMuMzM3IDcuNDM4LDcuNDM4djczLjU2MmgtNzMuNTYyYy0xMi4zNzMsMC0yMi40MzgsMTAuMDY1LTIyLjQzOCwyMi40Mzh2My43OGMwLDcuMzIxIDMuNzI1LDE0LjI2OCA5Ljk2NCwxOC41ODIgOC43ODksNi4wNzggMTQuMDM2LDE2LjA1OSAxNC4wMzYsMjYuNyAwLDkuODMtNC4zODEsMTkuMDI5LTEyLjAyMSwyNS4yMzctNy43NSw2LjI5OC0xNy41NDEsOC42MTUtMjcuNTcyLDYuNTE5LTEyLjQ4OC0yLjYwNy0yMi43My0xMy4yNzQtMjQuOTA2LTI1Ljk0LTIuMTc1LTEyLjY2NSAyLjkzNi0yNS4wNzIgMTMuMzM5LTMyLjM3OSA2LjQ1Ni00LjUzNSAxMC4xNTktMTEuMzc4IDEwLjE1OS0xOC43NzN2LTMuNzI1YzAuMDAxLTEyLjM3NC0xMC4wNjQtMjIuNDM5LTIyLjQzNy0yMi40MzloLTY1LjA2MmMtNC42ODcsMC04LjUtMy44MTMtOC41LTguNXYtMTkyem0yMDAuNSw0MjQuNWgtMTkyYy00LjY4NywwLTguNS0zLjgxMy04LjUtOC41di0xOTJjMC00LjY4NyAzLjgxMy04LjUgOC41LTguNWg2NS4wNjJjNC4xMDIsMCA3LjQzOCwzLjMzNyA3LjQzOCw3LjQzOHYzLjcyNWMwLDIuNDQyLTEuMzc4LDQuODExLTMuNzgxLDYuNDk4LTE1LjE5NiwxMC42NzQtMjIuNjY4LDI4Ljc1Ny0xOS41MDEsNDcuMTkzIDMuMjQ0LDE4Ljg4MyAxNy45NjIsMzQuMTg4IDM2LjYyMywzOC4wODUgMy4zNjQsMC43MDIgNi43NDIsMS4wNDggMTAuMDg5LDEuMDQ4IDEwLjkwOCwwIDIxLjQ3MS0zLjY3IDMwLjAwOS0xMC42MDkgMTEuMTYxLTkuMDY5IDE3LjU2MS0yMi41MTEgMTcuNTYxLTM2Ljg3OCAwLTE1LjU2NS03LjY2Ni0zMC4xNTktMjAuNTA1LTM5LjAzNy0yLjIyMS0xLjUzNi0zLjQ5NS0zLjgxMi0zLjQ5NS02LjI0NHYtMy43OGMwLTQuMTAyIDMuMzM2LTcuNDM4IDcuNDM4LTcuNDM4aDczLjU2MnY3My41NjJjMCwxMi4zNzIgMTAuMDY2LDIyLjQzNyAyMi40MzgsMjIuNDM3aDMuNzI1YzcuMzk2LDAgMTQuMjM5LTMuNzAzIDE4Ljc3My0xMC4xNiA3LjMwOC0xMC40MDMgMTkuNzE0LTE1LjUxMyAzMi4zOC0xMy4zMzggMTIuNjY2LDIuMTc2IDIzLjMzMywxMi40MTggMjUuOTQsMjQuOTA3IDIuMDk1LDEwLjAyOS0wLjIyMSwxOS44MjEtNi41MiwyNy41NzEtNi4yMDgsNy42MzktMTUuNDA2LDEyLjAyLTI1LjIzNiwxMi4wMi0xMC42NDEsMC0yMC42MjItNS4yNDctMjYuNy0xNC4wMzctNC4zMTUtNi4yMzgtMTEuMjYxLTkuOTYzLTE4LjU4Mi05Ljk2M2gtMy43OGMtMTIuMzcyLDAtMjIuNDM4LDEwLjA2NS0yMi40MzgsMjIuNDM4djY1LjA2MmMwLDQuNjg3LTMuODEzLDguNS04LjUsOC41em0yMzIuNS04LjVjMCw0LjY4Ny0zLjgxMyw4LjUtOC41LDguNWgtMTkyYy00LjY4NywwLTguNS0zLjgxMy04LjUtOC41di02NS4wNjJjMC00LjEwMiAzLjMzNy03LjQzOCA3LjQzOC03LjQzOGgzLjc4YzIuNDMyLDAgNC43MDgsMS4yNzQgNi4yNDQsMy40OTUgOC44NzksMTIuODQgMjMuNDczLDIwLjUwNSAzOS4wMzgsMjAuNTA1IDE0LjM2NiwwIDI3LjgwOC02LjQgMzYuODc3LTE3LjU2IDkuMDY5LTExLjE1NyAxMi41NTQtMjUuNzcyIDkuNTYzLTQwLjA5OC0zLjg5Ny0xOC42NjItMTkuMjAxLTMzLjM4LTM4LjA4My0zNi42MjQtMTguNDM5LTMuMTc2LTM2LjUyMSw0LjMwNC00Ny4xOTUsMTkuNS0xLjY4OCwyLjQwMy00LjA1NiwzLjc4MS02LjQ5OSwzLjc4MWgtMy43MjVjLTQuMTAyLDAtNy40MzgtMy4zMzctNy40MzgtNy40Mzh2LTczLjU2MWg3My41NjJjMTIuMzcyLDAgMjIuNDM4LTEwLjA2NSAyMi40MzgtMjIuNDM4di0zLjc4YzAtNy4zMjEtMy43MjUtMTQuMjY4LTkuOTY0LTE4LjU4Mi04Ljc4OS02LjA3OC0xNC4wMzYtMTYuMDU5LTE0LjAzNi0yNi43IDAtOS44MyA0LjM4MS0xOS4wMjggMTIuMDItMjUuMjM2IDcuNzUtNi4zIDE3LjU0My04LjYxNCAyNy41NzEtNi41MjEgMTIuNDg5LDIuNjA4IDIyLjczMSwxMy4yNzUgMjQuOTA3LDI1Ljk0IDIuMTc2LDEyLjY2NS0yLjkzNSwyNS4wNzMtMTMuMzM5LDMyLjM4LTYuNDU2LDQuNTM2LTEwLjE1OSwxMS4zNzgtMTAuMTU5LDE4Ljc3NHYzLjcyNWMwLDEyLjM3MyAxMC4wNjYsMjIuNDM4IDIyLjQzOCwyMi40MzhoNjUuMDYyYzQuNjg3LDAgOC41LDMuODEzIDguNSw4LjV2MTkyeiIvPiYjeGE7ICA8L2c+JiN4YTs8L3N2Zz4=;" parent="TZ5CDv7rkqlzj_aZVNXE-27" vertex="1">
          <mxGeometry x="21.3175" width="42.63157894736842" height="42.63157894736842" as="geometry" />
        </mxCell>
        <mxCell id="TZ5CDv7rkqlzj_aZVNXE-57" value="" style="rounded=0;orthogonalLoop=1;jettySize=auto;html=1;entryX=0.5;entryY=0;entryDx=0;entryDy=0;entryPerimeter=0;startArrow=none;startFill=0;startSize=3;endSize=3;endArrow=none;endFill=0;sketch=1;curveFitting=1;jiggle=2;fontFamily=Verdana;exitX=0.456;exitY=0.935;exitDx=0;exitDy=0;exitPerimeter=0;" parent="1" source="TZ5CDv7rkqlzj_aZVNXE-23" edge="1">
          <mxGeometry relative="1" as="geometry">
            <mxPoint x="300.05499999999984" y="260" as="sourcePoint" />
            <mxPoint x="317.1350000000002" y="240" as="targetPoint" />
          </mxGeometry>
        </mxCell>
        <mxCell id="TZ5CDv7rkqlzj_aZVNXE-60" value="" style="orthogonalLoop=1;jettySize=auto;html=1;entryX=0.5;entryY=0;entryDx=0;entryDy=0;startArrow=none;startFill=0;startSize=3;endSize=3;endArrow=none;endFill=0;exitX=0.5;exitY=1;exitDx=0;exitDy=0;sketch=1;curveFitting=1;jiggle=2;fontFamily=Verdana;curved=1;fillColor=#f8cecc;strokeColor=#b85450;" parent="1" source="TZ5CDv7rkqlzj_aZVNXE-28" target="TZ5CDv7rkqlzj_aZVNXE-25" edge="1">
          <mxGeometry relative="1" as="geometry">
            <mxPoint x="323" y="203" as="sourcePoint" />
            <mxPoint x="312" y="250" as="targetPoint" />
            <Array as="points">
              <mxPoint x="370" y="260" />
              <mxPoint x="320" y="230" />
            </Array>
          </mxGeometry>
        </mxCell>
        <mxCell id="TZ5CDv7rkqlzj_aZVNXE-61" value="" style="orthogonalLoop=1;jettySize=auto;html=1;entryX=0.5;entryY=0;entryDx=0;entryDy=0;startArrow=none;startFill=0;startSize=3;endSize=7;endArrow=classic;endFill=1;sketch=1;curveFitting=1;jiggle=2;fontFamily=Verdana;curved=1;fillColor=#f8cecc;strokeColor=#b85450;exitX=0.5;exitY=1;exitDx=0;exitDy=0;" parent="1" source="TZ5CDv7rkqlzj_aZVNXE-26" target="TZ5CDv7rkqlzj_aZVNXE-63" edge="1">
          <mxGeometry relative="1" as="geometry">
            <mxPoint x="404" y="220" as="sourcePoint" />
            <mxPoint x="312" y="330" as="targetPoint" />
            <Array as="points">
              <mxPoint x="320" y="400" />
              <mxPoint x="360" y="390" />
            </Array>
          </mxGeometry>
        </mxCell>
        <mxCell id="TZ5CDv7rkqlzj_aZVNXE-65" value="" style="group" parent="1" vertex="1" connectable="0">
          <mxGeometry x="220" y="420" width="260.64" height="70" as="geometry" />
        </mxCell>
        <mxCell id="TZ5CDv7rkqlzj_aZVNXE-63" value="" style="rounded=1;whiteSpace=wrap;html=1;sketch=1;curveFitting=1;jiggle=2;" parent="TZ5CDv7rkqlzj_aZVNXE-65" vertex="1">
          <mxGeometry width="260.64" height="70" as="geometry" />
        </mxCell>
        <mxCell id="TZ5CDv7rkqlzj_aZVNXE-53" value="&lt;font color=&quot;#000000&quot; style=&quot;font-size: 14px;&quot;&gt;LAN&lt;/font&gt;" style="html=1;outlineConnect=0;gradientDirection=north;strokeWidth=1;shape=mxgraph.networks.bus;gradientColor=none;gradientDirection=north;perimeter=backbonePerimeter;backboneSize=20;points=[[0.5,0,0,0,0]];fontSize=14;sketch=1;curveFitting=1;jiggle=2;fontFamily=Verdana;" parent="TZ5CDv7rkqlzj_aZVNXE-65" vertex="1">
          <mxGeometry x="20.639999999999986" y="30.980000000000018" width="99.36" height="11.49" as="geometry" />
        </mxCell>
        <mxCell id="TZ5CDv7rkqlzj_aZVNXE-54" value="&lt;font color=&quot;#000000&quot; style=&quot;font-size: 14px;&quot;&gt;WiFi&lt;/font&gt;" style="html=1;outlineConnect=0;gradientDirection=north;strokeWidth=1;shape=mxgraph.networks.cloud;fontSize=14;sketch=1;curveFitting=1;jiggle=2;fontFamily=Verdana;" parent="TZ5CDv7rkqlzj_aZVNXE-65" vertex="1">
          <mxGeometry x="135.43999999999994" y="10" width="105.2" height="43.96" as="geometry" />
        </mxCell>
        <mxCell id="TZ5CDv7rkqlzj_aZVNXE-67" value="" style="orthogonalLoop=1;jettySize=auto;html=1;entryX=1;entryY=0.5;entryDx=0;entryDy=0;startArrow=none;startFill=0;startSize=3;endSize=3;endArrow=classic;endFill=1;sketch=1;curveFitting=1;jiggle=2;fontFamily=Verdana;curved=1;fillColor=#f8cecc;strokeColor=#b85450;exitX=0;exitY=0.25;exitDx=0;exitDy=0;" parent="1" source="TZ5CDv7rkqlzj_aZVNXE-66" target="TZ5CDv7rkqlzj_aZVNXE-26" edge="1">
          <mxGeometry relative="1" as="geometry">
            <mxPoint x="330" y="390" as="sourcePoint" />
            <mxPoint x="330" y="440" as="targetPoint" />
          </mxGeometry>
        </mxCell>
        <mxCell id="TZ5CDv7rkqlzj_aZVNXE-68" value="" style="points=[[0.5,0,0],[1,0.5,0],[0.5,1,0],[0,0.5,0],[0.145,0.145,0],[0.8555,0.145,0],[0.855,0.8555,0],[0.145,0.855,0]];verticalLabelPosition=middle;html=1;verticalAlign=middle;aspect=fixed;align=right;pointerEvents=1;shape=mxgraph.cisco19.rect;prIcon=router;fillColor=#d5e8d4;strokeColor=#82b366;fontSize=15;fontFamily=Verdana;spacing=5;labelPosition=left;" parent="1" vertex="1">
          <mxGeometry x="293.48" y="240" width="47.31" height="47.31" as="geometry" />
        </mxCell>
        <mxCell id="oK5D_HKjQMv8cX4XZ9yv-4" value="&lt;div style=&quot;font-size: 8px;&quot;&gt;&lt;font face=&quot;Courier New&quot;&gt;&lt;b&gt;/etc/pihole/custom.list&lt;/b&gt;&lt;/font&gt;&lt;/div&gt;" style="shape=parallelogram;perimeter=parallelogramPerimeter;whiteSpace=wrap;html=1;fixedSize=1;size=0;rounded=1;fontSize=8;strokeWidth=0.2;labelPosition=center;verticalLabelPosition=middle;align=center;verticalAlign=middle;fillColor=#D6D6D6;fontColor=#333333;strokeColor=#666666;sketch=1;curveFitting=1;jiggle=1;" vertex="1" parent="1">
          <mxGeometry x="140" y="348.78" width="126" height="21.74" as="geometry" />
        </mxCell>
        <mxCell id="oK5D_HKjQMv8cX4XZ9yv-6" value="&lt;font style=&quot;font-size: 10px;&quot;&gt;DNS&lt;/font&gt;" style="text;strokeColor=none;align=center;fillColor=none;html=1;verticalAlign=middle;whiteSpace=wrap;rounded=0;" vertex="1" parent="1">
          <mxGeometry x="173" y="325.52" width="60" height="30" as="geometry" />
        </mxCell>
        <mxCell id="oK5D_HKjQMv8cX4XZ9yv-7" value="&lt;font style=&quot;font-size: 10px;&quot;&gt;DHCP&lt;/font&gt;" style="text;strokeColor=none;align=center;fillColor=none;html=1;verticalAlign=middle;whiteSpace=wrap;rounded=0;" vertex="1" parent="1">
          <mxGeometry x="445" y="325.52" width="60" height="30" as="geometry" />
        </mxCell>
        <mxCell id="oK5D_HKjQMv8cX4XZ9yv-8" value="" style="orthogonalLoop=1;jettySize=auto;html=1;entryX=0;entryY=0.5;entryDx=0;entryDy=0;startArrow=none;startFill=0;startSize=3;endSize=3;endArrow=classic;endFill=1;sketch=1;curveFitting=1;jiggle=2;fontFamily=Verdana;curved=1;fillColor=#f8cecc;strokeColor=#b85450;exitX=1;exitY=0.5;exitDx=0;exitDy=0;" edge="1" parent="1" source="oK5D_HKjQMv8cX4XZ9yv-4" target="TZ5CDv7rkqlzj_aZVNXE-26">
          <mxGeometry relative="1" as="geometry">
            <mxPoint x="390" y="367" as="sourcePoint" />
            <mxPoint x="375" y="366" as="targetPoint" />
          </mxGeometry>
        </mxCell>
      </root>
    </mxGraphModel>
  </diagram>
</mxfile>
